<svg height="148.31711mm" viewBox="0 0 145.52373 148.31711" width="145.52373mm" xmlns="http://www.w3.org/2000/svg"><g transform="translate(-25.611187 -13.145539)"><g fill="#fff"><path d="m63.975689 67.751913-14.73074-25.60922 42.84982-24.64774 19.313881 33.57696" stroke="#000" stroke-linecap="square" stroke-linejoin="round" stroke-miterlimit="6" stroke-width="4.699"/><path d="m75.694249 67.632193-3.73164-34.19545 49.141221-5.36262 4.2124 38.60091" stroke="#000" stroke-linecap="square" stroke-linejoin="round" stroke-miterlimit="6" stroke-width="4.699"/><path d="m84.75346 68.518913 10.265331-32.26653 47.106479 14.98654-7.27793 18.81064" stroke="#000" stroke-linecap="square" stroke-linejoin="round" stroke-miterlimit="6" stroke-width="4.699"/><path d="m26.611187 65.512886h143.52373v95.94976h-143.52373z"/></g><path d="m144.29281 72.212948c0 .32629-.10347.62076-.30241.89132-.20694.26259-.4218.39794-.6685.39794-1.98161.191-3.61308.82765-4.87048 1.91794-1.26538 1.08235-2.56258 3.15946-3.90755 6.21545l-20.53243 46.269572c-.13536.42977-.50932.64465-1.13006.64465-.48547 0-.85949-.21476-1.13008-.64465l-11.51567-24.08183-13.242627 24.08183c-.27071.42977-.64462.64465-1.13008.64465-.58891 0-.97888-.21476-1.16988-.64465l-20.17429-46.269572c-1.25741-2.87296-2.58646-4.87846-3.98713-6.01648-1.3927-1.13806-3.34249-1.84635-5.83342-2.11691-.21477 0-.4218-.11129-.60483-.3422-.19099-.22289-.28664-.48547-.28664-.77994 0-.75603.21476-1.13006.64461-1.13006 1.79858 0 3.67672.0797 5.64242.23883 1.82247.16724 3.54146.24664 5.14904.24664 1.63941 0 3.57329-.0797 5.8016-.24664 2.33179-.15912 4.40096-.23883 6.19951-.23883.42976 0 .64465.37403.64465 1.13006 0 .74808-.13536 1.12214-.39791 1.12214-1.79859.13536-3.21517.59685-4.24975 1.36882-1.03459.77991-1.55188 1.79858-1.55188 3.06396 0 .64462.21476 1.44841.64464 2.41135l16.67265 37.650752 9.46241-17.87435-8.81779-18.487142c-1.5837-3.29476-2.88887-5.42757-3.90755-6.38257-1.01864-.94703-2.56255-1.53597-4.63172-1.75082-.191 0-.36608-.11129-.54117-.3422-.17506-.22289-.26259-.48547-.26259-.77994 0-.75603.18318-1.13006.56503-1.13006 1.79858 0 3.44596.0797 4.95007.23883 1.44841.16724 2.99234.24664 4.63175.24664 1.60758 0 3.31064-.0797 5.10922-.24664 1.85429-.15912 3.676748-.23883 5.475327-.23883.42974 0 .64462.37403.64462 1.13006 0 .74808-.12723 1.12214-.39791 1.12214-3.597167.24665-5.395747 1.26535-5.395747 3.06393 0 .80379.41385 2.05326 1.24947 3.7404l5.833417 11.84196 5.80163-10.83126c.80379-1.52799 1.20964-2.81722 1.20964-3.86772 0-2.46708-1.79858-3.78019-5.39572-3.94731-.32629 0-.48547-.37406-.48547-1.12214 0-.27041.0797-.52523.23883-.764.16724-.24664.32632-.36606.48547-.36606 1.28926 0 2.87296.0797 4.75113.23883 1.79855.16724 3.27881.24664 4.43275.24664.82767 0 2.05326-.0716 3.66084-.20694 2.03732-.18318 3.74837-.27853 5.11719-.27853.31832 0 .4775.31833.4775.96294 0 .8595-.29447 1.28926-.88338 1.28926-2.09303.21476-3.7802.79582-5.05352 1.73491-1.27334.93908-2.86499 3.0719-4.76704 6.39848l-7.73547 14.301071 10.47314 21.336221 15.46298-35.955652c.5332-1.31311.80379-2.52275.80379-3.62101 0-2.6342-1.79858-4.0269-5.39572-4.19402-.32629 0-.48547-.37406-.48547-1.12214 0-.75603.23883-1.13006.7242-1.13006 1.31314 0 2.87297.0797 4.67155.23883 1.66329.16724 3.06393.24664 4.18607.24664 1.18576 0 2.55461-.0797 4.10649-.24664 1.61552-.15912 3.06393-.23883 4.35319-.23883.37403 0 .56503.31833.56503.96294z" fill-rule="evenodd" shape-rendering="geometricPrecision" stroke-width=".795831"/><text font-family="mark" font-size="29.035303" letter-spacing="0" stroke-width="3.629413" word-spacing="0" x="41.23946" y="154.74036"><tspan font-family="Liberation Serif" stroke-width="3.629413" x="41.23946" y="154.74036">CardWiki</tspan></text></g></svg>